<?xml version="1.0" encoding="UTF-8"?>
<svg width="130px" height="130px" viewBox="0 0 130 130" version="1.1" xmlns="http://www.w3.org/2000/svg" xmlns:xlink="http://www.w3.org/1999/xlink">
    <!-- Generator: Sketch 41.1 (35376) - http://www.bohemiancoding.com/sketch -->
    <title>logo-lg</title>
    <desc>Created with Sketch.</desc>
    <defs></defs>
    <g id="Web-Icon" stroke="none" stroke-width="1" fill="none" fill-rule="evenodd">
        <g id="logo-lg" fill="#F55C54">
            <path d="M74.1565324,0.656771413 C38.6208342,-4.40225055 5.71375978,20.3145592 0.656564215,55.8638268 C-3.73575281,86.735927 14.3240839,115.620029 42.4262341,126 L46.8060479,95.2095681 C28.8646243,91.4918197 16.3591711,74.8101436 17.9809158,56.4178471 C14.2718644,54.1899939 11.6145567,50.3074373 11.1445818,45.680301 C10.7518327,41.8006875 11.9911251,37.8864936 14.5462004,34.939812 L19.8637577,39.5544405 C18.5560651,41.0619938 17.9470835,42.9845104 18.1486064,44.9695658 C18.5472393,48.8955317 22.070213,51.7612807 25.9896131,51.3669184 C27.8901066,51.1734159 29.6030514,50.2515203 30.8107179,48.7704541 C32.0183844,47.2886521 32.5780886,45.4257313 32.3839205,43.5238157 L39.3886807,42.8123447 C39.7711329,46.5860102 38.6627569,50.2824218 36.2658109,53.2217459 C33.8696004,56.1603343 30.4723948,57.9901463 26.7000917,58.3727367 C26.215407,58.422032 25.7336642,58.4463118 25.2563344,58.4463118 C25.1379213,58.4463118 25.0217147,58.4323325 24.9033016,58.4293895 C24.3259458,72.692653 34.211601,85.3946535 48.208618,88.3096978 C51.3042748,82.9909559 62.0460347,82.1058477 71.0652885,82.624552 L71.8051865,77.4235301 C59.9190118,74.8579674 45.418923,69.3950183 46.5449507,60.4939061 L46.5375958,60.4924346 L49.8914079,36.9182457 L49.8950853,36.9182457 C51.4999138,26.2461815 73.385744,26.6206786 85.5491966,28.3526358 C97.6773459,30.0794427 118.82622,35.8867232 117.399379,46.5286216 L117.403056,46.5293574 L117.394231,46.5911604 L114.066896,69.9828831 L114.04998,70.1028105 L114.041889,70.1020747 C112.651087,78.8906171 97.2676807,80.1369788 85.1660089,79.312938 L84.4231689,84.5316179 C93.9638817,86.7315125 105.004984,91.0974573 104.971887,97.9333172 L104.985861,97.9347887 L104.969681,98.0473586 C104.963797,98.3026641 104.946145,98.5601769 104.909371,98.8228399 C104.856416,99.194394 104.785074,99.5600621 104.7027,99.9220514 L102.071869,118.41956 C116.390293,108.465589 126.692969,92.813228 129.343657,74.183284 C134.400117,38.6347521 109.691495,5.71579337 74.1565324,0.656771413 Z M89.7509176,46.8014681 L96.3193806,47.7356495 L94.4099414,61.1613932 L87.8414785,60.2272118 L89.7509176,46.8014681 Z M61.5669884,42.8375613 L68.1354514,43.7717427 L66.2259087,57.1982148 L59.6574457,56.2640334 L61.5669884,42.8375613 Z" id="Combined-Shape"></path>
        </g>
    </g>
</svg>